<?xml version="1.0" standalone="no"?>
<!DOCTYPE svg PUBLIC "-//W3C//DTD SVG 20010904//EN"
 "http://www.w3.org/TR/2001/REC-SVG-20010904/DTD/svg10.dtd">
<svg version="1.0" xmlns="http://www.w3.org/2000/svg"
 width="860.000000pt" height="860.000000pt" viewBox="0 0 860.000000 860.000000"
 preserveAspectRatio="xMidYMid meet">
<metadata>
Created by potrace 1.11, written by Peter Selinger 2001-2013
</metadata>
<g transform="translate(0.000000,860.000000) scale(0.100000,-0.100000)"
fill="#000000" stroke="none">
<path d="M0 4300 l0 -4300 4300 0 4300 0 0 4300 0 4300 -4300 0 -4300 0 0
-4300z m7340 1365 l0 -1645 -960 0 -960 0 2 1336 3 1336 950 308 c523 170 953
309 958 309 4 1 7 -739 7 -1644z m-2130 -340 l0 -1295 -915 0 -915 0 0 1005 0
1004 158 51 c86 27 492 158 902 289 410 132 751 240 758 240 9 1 12 -264 12
-1294z m-2040 -325 l0 -970 -955 0 -955 0 0 663 0 663 948 307 c521 168 950
306 955 306 4 1 7 -435 7 -969z m1848 -1146 l182 -6 0 -839 c0 -461 -2 -839
-5 -839 -2 0 -82 9 -177 20 -227 26 -455 44 -953 76 -225 14 -471 31 -545 37
l-135 12 -3 762 -2 763 24 6 c69 17 1159 22 1614 8z m2215 -1 l107 -6 0 -924
c0 -876 -1 -924 -17 -919 -88 26 -522 68 -953 91 -416 23 -618 41 -902 81
l-48 7 0 833 0 833 63 4 c117 6 1644 7 1750 0z m-4063 -767 l0 -754 -42 5
c-71 7 -1819 133 -1845 133 l-23 0 0 685 0 685 955 0 955 0 0 -754z"/>
</g>
</svg>
